<?xml version="1.0" encoding="UTF-8" standalone="no" ?>
<!DOCTYPE svg PUBLIC "-//W3C//DTD SVG 1.1//EN" "http://www.w3.org/Graphics/SVG/1.1/DTD/svg11.dtd">
<svg xmlns="http://www.w3.org/2000/svg" xmlns:xlink="http://www.w3.org/1999/xlink" version="1.1" width="1080" height="1080" viewBox="0 0 1080 1080" xml:space="preserve">
<desc>Created with Fabric.js 5.2.4</desc>
<defs>
</defs>
<g transform="matrix(1 0 0 1 540 540)" id="1bb37aa5-f1ae-4517-b2be-41a464a9d972"  >
<rect style="stroke: none; stroke-width: 1; stroke-dasharray: none; stroke-linecap: butt; stroke-dashoffset: 0; stroke-linejoin: miter; stroke-miterlimit: 4; fill: rgb(255,255,255); fill-rule: nonzero; opacity: 1; visibility: hidden;" vector-effect="non-scaling-stroke"  x="-540" y="-540" rx="0" ry="0" width="1080" height="1080" />
</g>
<g transform="matrix(1 0 0 1 540 540)" id="6533d2e1-f6b5-4fc2-8422-413328fab2f9"  >
</g>
<g transform="matrix(1 0 0 1 540 540)"  >
<g style="" vector-effect="non-scaling-stroke"   >
		<g transform="matrix(0.63 0 0 0.63 -106.25 -81.88)"  >
<path style="stroke: none; stroke-width: 1; stroke-dasharray: none; stroke-linecap: butt; stroke-dashoffset: 0; stroke-linejoin: miter; stroke-miterlimit: 4; fill: rgb(193,136,67); fill-rule: nonzero; opacity: 1;" vector-effect="non-scaling-stroke"  transform=" translate(18, -292.5)" d="M 0 0 L 19 2 L 34 7 L 45 13 L 61 25 L 69 33 L 78 45 L 82 50 L 84 51 L 85 39 L 89 30 L 95 22 L 99 19 L 104 19 L 106 22 L 105 30 L 111 27 L 116 28 L 117 29 L 117 35 L 111 44 L 107 49 L 101 59 L 106 54 L 113 48 L 118 48 L 119 53 L 115 59 L 103 70 L 99 74 L 95 73 L 94 72 L 95 96 L 93 106 L 91 110 L 91 120 L 102 155 L 110 183 L 115 198 L 115 204 L 112 201 L 101 173 L 88 142 L 78 118 L 62 109 L 52 101 L 44 92 L 39 82 L 34 64 L 30 51 L 22 40 L 13 32 L 4 28 L 0 27 L -13 27 L -25 30 L -41 38 L -54 48 L -64 57 L -76 71 L -87 85 L -98 103 L -104 113 L -112 130 L -121 153 L -129 180 L -133 200 L -135 219 L -136 235 L -136 250 L -134 276 L -130 298 L -124 318 L -115 340 L -105 358 L -96 372 L -85 386 L -73 399 L -59 413 L -49 421 L -36 431 L -18 443 L 6 456 L 33 469 L 56 478 L 61 477 L 59 458 L 54 416 L 53 404 L 53 366 L 56 350 L 61 337 L 68 328 L 75 323 L 88 319 L 97 319 L 107 323 L 117 332 L 126 346 L 132 363 L 136 382 L 138 403 L 138 430 L 136 451 L 132 475 L 126 497 L 121 512 L 113 530 L 105 545 L 93 561 L 77 577 L 66 584 L 63 585 L 62 580 L 65 570 L 64 566 L 56 567 L 40 567 L 23 564 L 5 558 L -17 548 L -32 539 L -51 525 L -62 516 L -72 507 L -90 489 L -99 478 L -111 463 L -127 439 L -136 423 L -149 397 L -161 366 L -170 335 L -172 320 L -174 284 L -173 256 L -170 222 L -166 200 L -160 174 L -150 144 L -133 107 L -122 88 L -112 73 L -101 59 L -92 48 L -76 33 L -62 22 L -43 11 L -22 3 L -11 1 z M 90 62 L 89 65 L 91 69 L 92 69 L 92 63 z M 69 83 L 67 85 L 68 89 L 73 90 L 75 88 L 74 84 z M 93 363 L 82 367 L 75 373 L 70 384 L 68 393 L 67 402 L 67 420 L 71 460 L 75 493 L 77 516 L 77 541 L 74 556 L 78 557 L 89 549 L 99 539 L 106 529 L 117 507 L 124 485 L 129 459 L 130 448 L 130 421 L 127 401 L 122 385 L 116 374 L 109 367 L 103 364 z" stroke-linecap="round" />
</g>
		<g transform="matrix(0.63 0 0 0.63 83.44 -61.56)"  >
<path style="stroke: none; stroke-width: 1; stroke-dasharray: none; stroke-linecap: butt; stroke-dashoffset: 0; stroke-linejoin: miter; stroke-miterlimit: 4; fill: rgb(193,136,67); fill-rule: nonzero; opacity: 1;" vector-effect="non-scaling-stroke"  transform=" translate(195.5, -210)" d="M 0 0 L 4 3 L 8 16 L 8 21 L 6 23 L -32 35 L -56 43 L -97 56 L -126 65 L -162 77 L -206 91 L -235 100 L -250 105 L -251 106 L -250 114 L -244 139 L -238 176 L -234 209 L -227 267 L -221 329 L -216 386 L -216 394 L -215 401 L -215 416 L -219 415 L -228 401 L -239 386 L -240 383 L -244 382 L -241 405 L -241 418 L -242 420 L -247 419 L -255 413 L -263 403 L -270 393 L -272 392 L -272 409 L -275 416 L -281 415 L -295 395 L -300 387 L -305 384 L -306 336 L -310 281 L -315 233 L -323 170 L -328 137 L -329 132 L -338 133 L -362 141 L -387 149 L -392 148 L -395 146 L -390 145 L -390 138 L -391 133 L -399 132 L -396 127 L -386 123 L -366 117 L -299 95 L -263 84 L -245 78 L -238 79 L -233 80 L -226 77 L -222 71 L -210 67 L -204 67 L -203 68 L -196 68 L -191 65 L -189 61 L -180 57 L -174 57 L -171 59 L -164 58 L -160 55 L -158 51 L -145 46 L -139 47 L -138 48 L -132 48 L -126 44 L -122 39 L -111 35 L -106 35 L -104 37 L -95 36 L -91 31 L -88 28 L -78 24 L -73 25 L -68 27 L -61 24 L -56 18 L -45 14 L -32 15 L -27 13 L -24 8 L -17 5 L -4 1 z M -354 118 L -362 122 L -362 126 L -360 127 L -350 126 L -344 123 L -343 119 L -344 118 z" stroke-linecap="round" />
</g>
		<g transform="matrix(0.63 0 0 0.63 141.25 -22.81)"  >
<path style="stroke: none; stroke-width: 1; stroke-dasharray: none; stroke-linecap: butt; stroke-dashoffset: 0; stroke-linejoin: miter; stroke-miterlimit: 4; fill: rgb(193,136,67); fill-rule: nonzero; opacity: 1;" vector-effect="non-scaling-stroke"  transform=" translate(-41, -155)" d="M 0 0 L 18 1 L 33 4 L 49 9 L 74 21 L 90 31 L 103 41 L 109 46 L 107 47 L 81 33 L 66 27 L 48 22 L 43 21 L 16 21 L 3 25 L -6 31 L -11 39 L -13 45 L -13 56 L -8 72 L 0 86 L 11 100 L 22 113 L 39 130 L 47 137 L 56 144 L 69 153 L 81 163 L 86 168 L 100 183 L 110 197 L 118 211 L 123 222 L 128 238 L 129 246 L 134 245 L 144 229 L 148 223 L 150 223 L 149 235 L 143 258 L 136 275 L 127 288 L 115 300 L 107 305 L 95 309 L 88 310 L 68 310 L 51 307 L 30 300 L 13 292 L -7 280 L -17 273 L -25 267 L -25 265 L -29 263 L -28 261 L -15 269 L -5 275 L 9 281 L 29 287 L 39 289 L 66 289 L 79 285 L 88 279 L 92 273 L 94 267 L 94 252 L 90 239 L 79 220 L 67 206 L 58 196 L 45 183 L 45 181 L 41 179 L 31 170 L 15 159 L 1 147 L -9 138 L -16 130 L -27 115 L -35 102 L -43 84 L -47 71 L -48 64 L -52 65 L -63 83 L -67 89 L -68 89 L -68 81 L -63 59 L -58 44 L -50 28 L -42 18 L -32 9 L -24 5 L -11 1 z" stroke-linecap="round" />
</g>
		<g transform="matrix(0.63 0 0 0.63 -106.25 -81.88)"  >
<path style="stroke: none; stroke-width: 1; stroke-dasharray: none; stroke-linecap: butt; stroke-dashoffset: 0; stroke-linejoin: miter; stroke-miterlimit: 4; fill: rgb(193,136,67); fill-rule: nonzero; opacity: 1;" vector-effect="non-scaling-stroke"  transform=" translate(18, -292.5)" d="M 0 0 L 19 2 L 34 7 L 45 13 L 61 25 L 69 33 L 78 45 L 82 50 L 84 51 L 85 39 L 89 30 L 95 22 L 99 19 L 104 19 L 106 22 L 105 30 L 111 27 L 116 28 L 117 29 L 117 35 L 111 44 L 107 49 L 101 59 L 106 54 L 113 48 L 118 48 L 119 53 L 115 59 L 103 70 L 99 74 L 95 73 L 94 72 L 95 96 L 93 106 L 91 110 L 91 120 L 102 155 L 110 183 L 115 198 L 115 204 L 112 201 L 101 173 L 88 142 L 78 118 L 62 109 L 52 101 L 44 92 L 39 82 L 34 64 L 30 51 L 22 40 L 13 32 L 4 28 L 0 27 L -13 27 L -25 30 L -41 38 L -54 48 L -64 57 L -76 71 L -87 85 L -98 103 L -104 113 L -112 130 L -121 153 L -129 180 L -133 200 L -135 219 L -136 235 L -136 250 L -134 276 L -130 298 L -124 318 L -115 340 L -105 358 L -96 372 L -85 386 L -73 399 L -59 413 L -49 421 L -36 431 L -18 443 L 6 456 L 33 469 L 56 478 L 61 477 L 59 458 L 54 416 L 53 404 L 53 366 L 56 350 L 61 337 L 68 328 L 75 323 L 88 319 L 97 319 L 107 323 L 117 332 L 126 346 L 132 363 L 136 382 L 138 403 L 138 430 L 136 451 L 132 475 L 126 497 L 121 512 L 113 530 L 105 545 L 93 561 L 77 577 L 66 584 L 63 585 L 62 580 L 65 570 L 64 566 L 56 567 L 40 567 L 23 564 L 5 558 L -17 548 L -32 539 L -51 525 L -62 516 L -72 507 L -90 489 L -99 478 L -111 463 L -127 439 L -136 423 L -149 397 L -161 366 L -170 335 L -172 320 L -174 284 L -173 256 L -170 222 L -166 200 L -160 174 L -150 144 L -133 107 L -122 88 L -112 73 L -101 59 L -92 48 L -76 33 L -62 22 L -43 11 L -22 3 L -11 1 z M -7 3 L -21 5 L -42 13 L -58 22 L -71 32 L -80 40 L -88 47 L -93 53 L -93 55 L -95 55 L -101 63 L -108 71 L -120 89 L -128 103 L -136 118 L -149 148 L -160 183 L -166 211 L -169 234 L -170 246 L -171 273 L -171 288 L -170 318 L -168 332 L -164 349 L -155 375 L -145 399 L -136 418 L -132 425 L -126 436 L -114 454 L -103 469 L -94 480 L -83 492 L -76 500 L -61 514 L -51 522 L -38 532 L -32 536 L -19 544 L 6 556 L 24 562 L 35 564 L 66 564 L 67 565 L 66 580 L 71 578 L 82 569 L 90 561 L 100 548 L 106 538 L 105 534 L 105 536 L 103 536 L 95 546 L 80 558 L 73 559 L 72 555 L 75 543 L 75 508 L 71 468 L 68 447 L 65 414 L 66 399 L 68 386 L 72 376 L 77 368 L 87 363 L 90 362 L 102 362 L 110 366 L 115 371 L 119 376 L 127 394 L 131 415 L 132 445 L 134 445 L 135 433 L 135 396 L 134 384 L 129 362 L 125 350 L 119 339 L 112 330 L 102 323 L 98 322 L 85 322 L 75 326 L 67 332 L 60 346 L 56 362 L 55 375 L 55 392 L 58 431 L 63 471 L 63 479 L 62 480 L 53 480 L 25 468 L 6 459 L -16 447 L -33 436 L -44 428 L -61 414 L -67 409 L -74 401 L -86 389 L -97 375 L -104 364 L -113 349 L -121 332 L -127 316 L -132 301 L -136 280 L -138 255 L -138 230 L -136 204 L -131 179 L -124 154 L -113 126 L -105 110 L -100 102 L -94 91 L -84 77 L -75 66 L -63 53 L -53 44 L -39 34 L -23 27 L -15 25 L 1 25 L 12 29 L 20 35 L 27 42 L 33 52 L 40 78 L 43 85 L 49 95 L 60 105 L 74 113 L 81 118 L 92 146 L 97 155 L 98 151 L 92 130 L 88 117 L 89 109 L 92 102 L 92 81 L 88 68 L 88 60 L 91 51 L 95 42 L 98 41 L 95 57 L 96 59 L 98 59 L 104 49 L 114 36 L 115 31 L 110 30 L 103 34 L 101 34 L 103 27 L 103 22 L 101 21 L 93 28 L 88 36 L 87 39 L 86 52 L 81 53 L 73 42 L 64 32 L 58 25 L 52 21 L 44 15 L 30 8 L 22 5 L 10 3 z M 90 62 L 89 65 L 91 69 L 92 69 L 92 63 z M 93 363 L 82 367 L 75 373 L 70 384 L 68 393 L 67 402 L 67 420 L 71 460 L 75 493 L 77 516 L 77 541 L 74 556 L 78 557 L 89 549 L 99 539 L 106 529 L 117 507 L 124 485 L 129 459 L 130 448 L 130 421 L 127 401 L 122 385 L 116 374 L 109 367 L 103 364 z" stroke-linecap="round" />
</g>
		<g transform="matrix(0.63 0 0 0.63 16.25 178.13)"  >
<path style="stroke: none; stroke-width: 1; stroke-dasharray: none; stroke-linecap: butt; stroke-dashoffset: 0; stroke-linejoin: miter; stroke-miterlimit: 4; fill: rgb(193,136,67); fill-rule: nonzero; opacity: 1;" vector-effect="non-scaling-stroke"  transform=" translate(63, -65.5)" d="M 0 0 L 3 1 L 3 8 L -2 22 L -11 37 L -22 49 L -29 55 L -37 60 L -38 63 L -39 73 L -46 89 L -55 103 L -66 115 L -73 121 L -83 127 L -94 131 L -110 131 L -118 128 L -125 122 L -128 116 L -129 108 L -127 100 L -120 93 L -111 89 L -100 87 L -84 85 L -69 80 L -55 73 L -44 66 L -42 62 L -58 62 L -66 58 L -71 52 L -73 48 L -73 37 L -66 29 L -59 25 L -35 20 L -23 15 L -9 7 z" stroke-linecap="round" />
</g>
		<g transform="matrix(0.63 0 0 0.63 -129.06 188.13)"  >
<path style="stroke: none; stroke-width: 1; stroke-dasharray: none; stroke-linecap: butt; stroke-dashoffset: 0; stroke-linejoin: miter; stroke-miterlimit: 4; fill: rgb(193,136,67); fill-rule: nonzero; opacity: 1;" vector-effect="non-scaling-stroke"  transform=" translate(-35.5, -69.5)" d="M 0 0 L 11 0 L 21 4 L 30 10 L 39 20 L 43 29 L 45 40 L 46 55 L 50 73 L 56 87 L 63 98 L 72 109 L 85 122 L 101 136 L 101 139 L 90 139 L 63 136 L 48 132 L 29 125 L 14 116 L 3 108 L -9 96 L -18 84 L -24 71 L -28 58 L -30 46 L -30 35 L -26 20 L -20 11 L -13 5 L -8 2 z M 8 39 L -2 46 L -6 54 L -7 57 L -7 71 L -2 87 L 5 98 L 16 108 L 30 116 L 47 122 L 66 125 L 72 125 L 73 121 L 61 110 L 54 103 L 47 93 L 42 82 L 40 72 L 38 56 L 34 49 L 30 44 L 21 39 z" stroke-linecap="round" />
</g>
		<g transform="matrix(0.63 0 0 0.63 -74.38 187.5)"  >
<path style="stroke: none; stroke-width: 1; stroke-dasharray: none; stroke-linecap: butt; stroke-dashoffset: 0; stroke-linejoin: miter; stroke-miterlimit: 4; fill: rgb(193,136,67); fill-rule: nonzero; opacity: 1;" vector-effect="non-scaling-stroke"  transform=" translate(-45, -46.5)" d="M 0 0 L 16 0 L 28 6 L 35 12 L 43 27 L 51 43 L 58 53 L 69 64 L 79 71 L 91 78 L 111 87 L 110 91 L 101 92 L 63 93 L 43 90 L 20 83 L 3 74 L -9 62 L -16 51 L -20 41 L -21 37 L -21 20 L -18 13 L -11 5 L -3 1 z M 16 24 L 8 27 L 1 35 L 0 38 L 0 49 L 4 59 L 9 67 L 14 72 L 21 78 L 38 84 L 49 86 L 83 86 L 87 84 L 86 81 L 81 79 L 74 79 L 68 82 L 52 82 L 32 77 L 21 70 L 16 62 L 14 55 L 15 45 L 16 42 L 21 40 L 23 39 L 30 39 L 38 43 L 41 44 L 40 38 L 36 32 L 30 27 L 22 24 z M 45 52 L 46 57 L 52 66 L 60 73 L 68 77 L 71 77 L 70 74 L 58 65 L 51 58 L 46 52 z" stroke-linecap="round" />
</g>
		<g transform="matrix(0.63 0 0 0.63 -35.31 26.25)"  >
<path style="stroke: none; stroke-width: 1; stroke-dasharray: none; stroke-linecap: butt; stroke-dashoffset: 0; stroke-linejoin: miter; stroke-miterlimit: 4; fill: rgb(193,136,67); fill-rule: nonzero; opacity: 1;" vector-effect="non-scaling-stroke"  transform=" translate(-2.5, -74.5)" d="M 0 0 L 6 1 L 12 6 L 17 16 L 21 33 L 22 41 L 22 69 L 19 92 L 13 115 L 8 127 L -1 141 L -5 146 L -11 149 L -12 148 L -12 110 L -16 68 L -17 59 L -17 23 L -14 11 L -10 5 L -4 1 z" stroke-linecap="round" />
</g>
		<g transform="matrix(0.63 0 0 0.63 83.44 -61.56)"  >
<path style="stroke: none; stroke-width: 1; stroke-dasharray: none; stroke-linecap: butt; stroke-dashoffset: 0; stroke-linejoin: miter; stroke-miterlimit: 4; fill: rgb(193,136,67); fill-rule: nonzero; opacity: 1;" vector-effect="non-scaling-stroke"  transform=" translate(195.5, -210)" d="M 0 0 L 4 3 L 8 16 L 8 21 L 6 23 L -32 35 L -56 43 L -97 56 L -126 65 L -162 77 L -206 91 L -235 100 L -250 105 L -251 106 L -250 114 L -244 139 L -238 176 L -234 209 L -227 267 L -221 329 L -216 386 L -216 394 L -215 401 L -215 416 L -219 415 L -228 401 L -239 386 L -240 383 L -244 382 L -241 405 L -241 418 L -242 420 L -247 419 L -255 413 L -263 403 L -270 393 L -272 392 L -272 409 L -275 416 L -281 415 L -295 395 L -300 387 L -305 384 L -306 336 L -310 281 L -315 233 L -323 170 L -328 137 L -329 132 L -338 133 L -362 141 L -387 149 L -392 148 L -395 146 L -390 145 L -390 138 L -391 133 L -399 132 L -396 127 L -386 123 L -366 117 L -299 95 L -263 84 L -245 78 L -238 79 L -233 80 L -226 77 L -222 71 L -210 67 L -204 67 L -203 68 L -196 68 L -191 65 L -189 61 L -180 57 L -174 57 L -171 59 L -164 58 L -160 55 L -158 51 L -145 46 L -139 47 L -138 48 L -132 48 L -126 44 L -122 39 L -111 35 L -106 35 L -104 37 L -95 36 L -91 31 L -88 28 L -78 24 L -73 25 L -68 27 L -61 24 L -56 18 L -45 14 L -32 15 L -27 13 L -24 8 L -17 5 L -4 1 z M -3 3 L -19 8 L -27 17 L -30 18 L -49 18 L -55 22 L -59 26 L -66 29 L -72 29 L -74 28 L -82 28 L -88 32 L -92 37 L -96 39 L -106 39 L -111 38 L -121 41 L -125 47 L -133 51 L -139 51 L -146 49 L -155 53 L -160 58 L -166 61 L -173 61 L -175 60 L -184 61 L -192 69 L -197 71 L -206 71 L -207 70 L -216 71 L -221 75 L -225 80 L -231 82 L -239 82 L -240 81 L -247 81 L -280 92 L -304 99 L -343 112 L -345 116 L -341 119 L -342 124 L -349 127 L -352 128 L -362 128 L -364 126 L -364 120 L -372 121 L -386 126 L -392 128 L -390 132 L -387 139 L -386 145 L -380 144 L -355 136 L -336 130 L -327 129 L -324 146 L -321 168 L -319 182 L -316 202 L -313 231 L -312 234 L -309 266 L -307 285 L -304 332 L -303 380 L -296 388 L -289 399 L -279 413 L -276 413 L -274 405 L -274 391 L -273 389 L -268 390 L -263 399 L -254 410 L -249 415 L -244 416 L -244 399 L -246 387 L -246 380 L -240 381 L -233 389 L -221 407 L -218 408 L -219 381 L -221 352 L -228 282 L -234 228 L -236 213 L -239 186 L -246 140 L -252 116 L -254 110 L -253 104 L -245 101 L -221 93 L -198 86 L -124 62 L -80 48 L -64 43 L -41 36 L -33 33 L 4 21 L 6 18 L 1 3 z M -354 118 L -362 122 L -362 126 L -360 127 L -350 126 L -344 123 L -343 119 L -344 118 z" stroke-linecap="round" />
</g>
		<g transform="matrix(0.63 0 0 0.63 -188.44 166.25)"  >
<path style="stroke: none; stroke-width: 1; stroke-dasharray: none; stroke-linecap: butt; stroke-dashoffset: 0; stroke-linejoin: miter; stroke-miterlimit: 4; fill: rgb(193,136,67); fill-rule: nonzero; opacity: 1;" vector-effect="non-scaling-stroke"  transform=" translate(6.5, -64.5)" d="M 0 0 L 8 0 L 16 3 L 25 11 L 29 20 L 29 35 L 25 44 L 19 52 L 5 63 L -2 70 L -11 84 L -18 101 L -22 121 L -24 129 L -27 129 L -33 115 L -40 88 L -42 74 L -42 55 L -39 40 L -34 28 L -27 17 L -20 10 L -9 3 z M -15 28 L -23 32 L -30 40 L -35 50 L -36 53 L -36 64 L -34 65 L -30 53 L -26 47 L -21 43 L -19 42 L -11 42 L -6 47 L -5 49 L -6 61 L -2 60 L 4 53 L 6 49 L 6 38 L 2 32 L -3 28 z M -12 65 L -20 72 L -25 83 L -26 90 L -31 90 L -30 99 L -28 102 L -25 101 L -22 88 L -17 76 L -11 67 z" stroke-linecap="round" />
</g>
		<g transform="matrix(0.63 0 0 0.63 -170.63 219.69)"  >
<path style="stroke: none; stroke-width: 1; stroke-dasharray: none; stroke-linecap: butt; stroke-dashoffset: 0; stroke-linejoin: miter; stroke-miterlimit: 4; fill: rgb(193,136,67); fill-rule: nonzero; opacity: 1;" vector-effect="non-scaling-stroke"  transform=" translate(-21, -52)" d="M 0 0 L 10 0 L 18 3 L 26 10 L 32 22 L 34 51 L 38 66 L 49 86 L 57 95 L 62 101 L 62 104 L 53 103 L 35 96 L 16 86 L 6 78 L -4 69 L -13 57 L -19 41 L -20 27 L -17 14 L -11 6 L -3 1 z M 5 22 L -1 26 L -5 31 L -7 38 L -6 50 L -1 62 L 9 72 L 23 81 L 36 87 L 43 88 L 44 85 L 39 80 L 31 79 L 19 74 L 9 66 L 4 58 L 3 54 L 3 44 L 6 39 L 10 37 L 17 38 L 22 43 L 26 46 L 27 41 L 25 32 L 19 25 L 12 22 z M 25 54 L 25 63 L 30 72 L 34 76 L 36 75 L 29 60 L 27 55 z" stroke-linecap="round" />
</g>
		<g transform="matrix(0.63 0 0 0.63 -136.25 134.06)"  >
<path style="stroke: none; stroke-width: 1; stroke-dasharray: none; stroke-linecap: butt; stroke-dashoffset: 0; stroke-linejoin: miter; stroke-miterlimit: 4; fill: rgb(193,136,67); fill-rule: nonzero; opacity: 1;" vector-effect="non-scaling-stroke"  transform=" translate(-7, -33)" d="M 0 0 L 10 0 L 24 2 L 34 5 L 48 13 L 57 22 L 63 32 L 65 45 L 62 54 L 55 62 L 44 66 L 37 66 L 27 63 L 21 59 L 13 50 L 6 41 L 6 39 L 2 37 L -9 29 L -19 24 L -33 19 L -51 15 L -51 12 L -27 4 L -11 1 z M 9 6 L 10 9 L 21 15 L 25 22 L 25 30 L 21 34 L 8 34 L 9 40 L 18 45 L 26 45 L 34 41 L 38 35 L 38 26 L 34 18 L 25 10 L 17 6 z M -23 8 L -30 11 L -30 14 L -16 18 L -2 26 L 3 28 L 1 24 L -4 19 L -12 15 L -18 14 L -16 8 z" stroke-linecap="round" />
</g>
		<g transform="matrix(0.63 0 0 0.63 141.25 -22.81)"  >
<path style="stroke: none; stroke-width: 1; stroke-dasharray: none; stroke-linecap: butt; stroke-dashoffset: 0; stroke-linejoin: miter; stroke-miterlimit: 4; fill: rgb(193,136,67); fill-rule: nonzero; opacity: 1;" vector-effect="non-scaling-stroke"  transform=" translate(-41, -155)" d="M 0 0 L 18 1 L 33 4 L 49 9 L 74 21 L 90 31 L 103 41 L 109 46 L 107 47 L 81 33 L 66 27 L 48 22 L 43 21 L 16 21 L 3 25 L -6 31 L -11 39 L -13 45 L -13 56 L -8 72 L 0 86 L 11 100 L 22 113 L 39 130 L 47 137 L 56 144 L 69 153 L 81 163 L 86 168 L 100 183 L 110 197 L 118 211 L 123 222 L 128 238 L 129 246 L 134 245 L 144 229 L 148 223 L 150 223 L 149 235 L 143 258 L 136 275 L 127 288 L 115 300 L 107 305 L 95 309 L 88 310 L 68 310 L 51 307 L 30 300 L 13 292 L -7 280 L -17 273 L -25 267 L -25 265 L -29 263 L -28 261 L -15 269 L -5 275 L 9 281 L 29 287 L 39 289 L 66 289 L 79 285 L 88 279 L 92 273 L 94 267 L 94 252 L 90 239 L 79 220 L 67 206 L 58 196 L 45 183 L 45 181 L 41 179 L 31 170 L 15 159 L 1 147 L -9 138 L -16 130 L -27 115 L -35 102 L -43 84 L -47 71 L -48 64 L -52 65 L -63 83 L -67 89 L -68 89 L -68 81 L -63 59 L -58 44 L -50 28 L -42 18 L -32 9 L -24 5 L -11 1 z M -6 3 L -16 5 L -29 10 L -39 19 L -47 28 L -55 43 L -60 57 L -64 74 L -63 77 L -53 63 L -52 62 L -47 62 L -40 85 L -35 97 L -28 109 L -17 125 L -8 135 L -3 140 L 10 152 L 23 162 L 32 168 L 46 180 L 54 188 L 58 193 L 60 193 L 62 197 L 69 204 L 78 215 L 88 230 L 94 242 L 97 254 L 97 265 L 92 278 L 84 285 L 76 289 L 64 292 L 41 292 L 23 288 L 9 284 L 8 286 L 22 294 L 32 298 L 43 302 L 56 306 L 65 307 L 92 307 L 101 305 L 111 300 L 118 294 L 118 292 L 120 292 L 120 290 L 122 290 L 132 277 L 138 265 L 143 249 L 146 236 L 144 234 L 136 246 L 133 249 L 128 248 L 124 232 L 120 220 L 111 203 L 100 187 L 88 174 L 83 169 L 78 163 L 76 163 L 76 161 L 58 148 L 47 140 L 31 125 L 16 110 L 7 99 L 1 91 L -10 74 L -15 58 L -15 44 L -10 31 L 1 23 L 14 19 L 19 18 L 38 18 L 49 20 L 65 24 L 72 26 L 72 23 L 57 15 L 37 7 L 17 3 z" stroke-linecap="round" />
</g>
		<g transform="matrix(0.63 0 0 0.63 -48.44 153.13)"  >
<path style="stroke: none; stroke-width: 1; stroke-dasharray: none; stroke-linecap: butt; stroke-dashoffset: 0; stroke-linejoin: miter; stroke-miterlimit: 4; fill: rgb(193,136,67); fill-rule: nonzero; opacity: 1;" vector-effect="non-scaling-stroke"  transform=" translate(43.5, -33.5)" d="M 0 0 L 4 1 L 1 13 L -9 32 L -17 43 L -27 53 L -41 62 L -50 66 L -55 67 L -70 67 L -80 64 L -87 58 L -90 52 L -91 45 L -88 37 L -83 31 L -73 26 L -58 24 L -41 21 L -24 15 L -13 9 z" stroke-linecap="round" />
</g>
		<g transform="matrix(0.63 0 0 0.63 -24.38 178.44)"  >
<path style="stroke: none; stroke-width: 1; stroke-dasharray: none; stroke-linecap: butt; stroke-dashoffset: 0; stroke-linejoin: miter; stroke-miterlimit: 4; fill: rgb(193,136,67); fill-rule: nonzero; opacity: 1;" vector-effect="non-scaling-stroke"  transform=" translate(42, -31)" d="M 0 0 L 3 0 L 2 9 L -6 24 L -16 38 L -25 47 L -38 56 L -49 61 L -54 62 L -67 62 L -77 59 L -84 53 L -87 46 L -87 35 L -83 28 L -78 24 L -72 21 L -67 20 L -41 18 L -24 13 L -8 5 z" stroke-linecap="round" />
</g>
		<g transform="matrix(0.63 0 0 0.63 -40.94 233.75)"  >
<path style="stroke: none; stroke-width: 1; stroke-dasharray: none; stroke-linecap: butt; stroke-dashoffset: 0; stroke-linejoin: miter; stroke-miterlimit: 4; fill: rgb(193,136,67); fill-rule: nonzero; opacity: 1;" vector-effect="non-scaling-stroke"  transform=" translate(-39.5, -23.5)" d="M 0 0 L 13 0 L 35 7 L 48 10 L 76 10 L 88 8 L 93 8 L 94 12 L 88 19 L 77 28 L 63 37 L 52 42 L 40 46 L 35 47 L 15 47 L 1 42 L -7 36 L -13 28 L -15 18 L -12 9 L -7 3 z M 20 9 L 13 12 L 9 16 L 8 25 L 11 31 L 19 38 L 29 41 L 38 40 L 34 36 L 27 32 L 24 27 L 24 21 L 27 16 L 30 14 L 30 11 L 26 9 z" stroke-linecap="round" />
</g>
		<g transform="matrix(0.63 0 0 0.63 3.13 199.06)"  >
<path style="stroke: none; stroke-width: 1; stroke-dasharray: none; stroke-linecap: butt; stroke-dashoffset: 0; stroke-linejoin: miter; stroke-miterlimit: 4; fill: rgb(193,136,67); fill-rule: nonzero; opacity: 1;" vector-effect="non-scaling-stroke"  transform=" translate(39, -30)" d="M 0 0 L 3 0 L 2 9 L -7 26 L -16 38 L -25 47 L -39 56 L -50 60 L -64 60 L -74 56 L -79 50 L -81 46 L -81 35 L -77 29 L -72 25 L -66 22 L -41 19 L -25 14 L -9 6 z" stroke-linecap="round" />
</g>
		<g transform="matrix(0.63 0 0 0.63 -105.63 246.56)"  >
<path style="stroke: none; stroke-width: 1; stroke-dasharray: none; stroke-linecap: butt; stroke-dashoffset: 0; stroke-linejoin: miter; stroke-miterlimit: 4; fill: rgb(193,136,67); fill-rule: nonzero; opacity: 1;" vector-effect="non-scaling-stroke"  transform=" translate(-48, -29)" d="M 0 0 L 18 0 L 28 4 L 42 13 L 58 21 L 74 26 L 84 28 L 106 30 L 109 33 L 104 38 L 93 45 L 83 50 L 72 53 L 61 54 L 64 52 L 87 42 L 92 39 L 93 36 L 91 35 L 72 33 L 57 28 L 43 20 L 35 16 L 32 15 L 23 15 L 18 18 L 15 22 L 14 31 L 17 38 L 21 43 L 30 49 L 42 53 L 50 55 L 49 57 L 33 58 L 19 55 L 9 51 L -2 43 L -9 35 L -12 30 L -13 26 L -13 16 L -9 7 L -2 1 z" stroke-linecap="round" />
</g>
		<g transform="matrix(0.63 0 0 0.63 12.81 127.19)"  >
<path style="stroke: none; stroke-width: 1; stroke-dasharray: none; stroke-linecap: butt; stroke-dashoffset: 0; stroke-linejoin: miter; stroke-miterlimit: 4; fill: rgb(193,136,67); fill-rule: nonzero; opacity: 1;" vector-effect="non-scaling-stroke"  transform=" translate(16.5, -41)" d="M 0 0 L 3 2 L 6 12 L 7 20 L 7 36 L 4 50 L -1 62 L -5 68 L -13 77 L -22 82 L -32 82 L -38 78 L -40 74 L -40 65 L -36 57 L -25 45 L -18 36 L -12 27 L -4 6 L -2 1 z" stroke-linecap="round" />
</g>
		<g transform="matrix(0.63 0 0 0.63 -187.81 159.06)"  >
<path style="stroke: none; stroke-width: 1; stroke-dasharray: none; stroke-linecap: butt; stroke-dashoffset: 0; stroke-linejoin: miter; stroke-miterlimit: 4; fill: rgb(193,136,67); fill-rule: nonzero; opacity: 1;" vector-effect="non-scaling-stroke"  transform=" translate(2.5, -50)" d="M 0 0 L 14 0 L 23 6 L 28 13 L 30 21 L 30 29 L 27 38 L 23 44 L 18 49 L 8 57 L -2 67 L -9 78 L -17 96 L -19 100 L -20 97 L -17 84 L -13 75 L -8 67 L -1 60 L 3 57 L 5 57 L 10 47 L 10 34 L 7 28 L 1 24 L -10 23 L -17 26 L -25 32 L -32 43 L -35 46 L -34 38 L -29 26 L -21 14 L -12 6 z" stroke-linecap="round" />
</g>
		<g transform="matrix(0.63 0 0 0.63 -94.38 182.81)"  >
<path style="stroke: none; stroke-width: 1; stroke-dasharray: none; stroke-linecap: butt; stroke-dashoffset: 0; stroke-linejoin: miter; stroke-miterlimit: 4; fill: rgb(193,136,67); fill-rule: nonzero; opacity: 1;" vector-effect="non-scaling-stroke"  transform=" translate(-12, -37)" d="M 0 0 L 14 0 L 26 6 L 33 13 L 44 35 L 43 39 L 36 28 L 31 24 L 21 21 L 13 21 L 5 25 L -1 32 L -3 42 L 0 54 L 5 64 L 13 73 L 10 74 L 0 67 L -8 59 L -14 50 L -19 38 L -20 34 L -20 19 L -17 12 L -12 6 L -4 1 z" stroke-linecap="round" />
</g>
		<g transform="matrix(0.63 0 0 0.63 138.13 -114.38)"  >
<path style="stroke: none; stroke-width: 1; stroke-dasharray: none; stroke-linecap: butt; stroke-dashoffset: 0; stroke-linejoin: miter; stroke-miterlimit: 4; fill: rgb(193,136,67); fill-rule: nonzero; opacity: 1;" vector-effect="non-scaling-stroke"  transform=" translate(-39, -30.5)" d="M 0 0 L 23 0 L 38 4 L 54 11 L 68 20 L 85 32 L 100 46 L 108 53 L 113 59 L 113 61 L 108 59 L 93 47 L 78 37 L 64 29 L 43 21 L 28 17 L 16 15 L 3 15 L -9 17 L -22 21 L -34 26 L -35 23 L -29 15 L -16 6 L -8 2 z" stroke-linecap="round" />
</g>
		<g transform="matrix(0.63 0 0 0.63 -72.5 -195)"  >
<path style="stroke: none; stroke-width: 1; stroke-dasharray: none; stroke-linecap: butt; stroke-dashoffset: 0; stroke-linejoin: miter; stroke-miterlimit: 4; fill: rgb(193,136,67); fill-rule: nonzero; opacity: 1;" vector-effect="non-scaling-stroke"  transform=" translate(63, -92.5)" d="M 0 0 L 5 0 L 7 3 L 6 11 L 12 8 L 17 9 L 18 10 L 18 16 L 12 25 L 8 30 L 2 40 L 7 35 L 14 29 L 19 29 L 20 34 L 16 40 L 4 51 L 0 55 L -4 54 L -5 53 L -4 77 L -6 87 L -8 91 L -8 101 L 3 136 L 11 164 L 16 179 L 16 185 L 13 182 L 2 154 L -11 123 L -21 99 L -37 90 L -47 82 L -55 73 L -60 63 L -65 45 L -69 32 L -77 21 L -86 13 L -95 9 L -99 8 L -112 8 L -124 11 L -140 19 L -144 22 L -146 21 L -138 14 L -122 7 L -114 5 L -98 5 L -87 9 L -79 15 L -71 23 L -65 33 L -58 59 L -55 66 L -49 76 L -39 85 L -25 93 L -17 99 L -6 127 L -2 135 L -4 124 L -10 106 L -12 98 L -11 90 L -8 83 L -8 62 L -12 49 L -12 41 L -9 32 L -4 22 L 0 21 L -2 31 L -3 40 L -1 40 L 1 35 L 7 26 L 15 15 L 15 12 L 10 13 L 4 16 L 2 15 L 3 3 L -2 6 L -7 12 L -10 17 L -12 17 L -11 13 L -5 4 z M -9 43 L -10 46 L -8 50 L -7 50 L -7 44 z" stroke-linecap="round" />
</g>
		<g transform="matrix(0.63 0 0 0.63 -131.88 199.69)"  >
<path style="stroke: none; stroke-width: 1; stroke-dasharray: none; stroke-linecap: butt; stroke-dashoffset: 0; stroke-linejoin: miter; stroke-miterlimit: 4; fill: rgb(193,136,67); fill-rule: nonzero; opacity: 1;" vector-effect="non-scaling-stroke"  transform=" translate(-16, -29)" d="M 0 0 L 9 0 L 17 5 L 21 11 L 23 27 L 28 39 L 35 48 L 42 54 L 42 58 L 31 58 L 20 55 L 8 49 L -2 40 L -8 29 L -10 22 L -10 11 L -6 4 z" stroke-linecap="round" />
</g>
		<g transform="matrix(0.63 0 0 0.63 144.38 69.38)"  >
<path style="stroke: none; stroke-width: 1; stroke-dasharray: none; stroke-linecap: butt; stroke-dashoffset: 0; stroke-linejoin: miter; stroke-miterlimit: 4; fill: rgb(193,136,67); fill-rule: nonzero; opacity: 1;" vector-effect="non-scaling-stroke"  transform=" translate(-74, -30.5)" d="M 0 0 L 4 1 L 14 9 L 38 25 L 57 35 L 81 43 L 94 45 L 114 45 L 129 42 L 143 36 L 148 36 L 144 43 L 133 52 L 120 58 L 106 61 L 97 61 L 80 58 L 61 50 L 45 41 L 34 32 L 25 25 L 15 16 L 2 4 z" stroke-linecap="round" />
</g>
		<g transform="matrix(0.63 0 0 0.63 -47.19 -61.25)"  >
<path style="stroke: none; stroke-width: 1; stroke-dasharray: none; stroke-linecap: butt; stroke-dashoffset: 0; stroke-linejoin: miter; stroke-miterlimit: 4; fill: rgb(193,136,67); fill-rule: nonzero; opacity: 1;" vector-effect="non-scaling-stroke"  transform=" translate(1.5, -27.5)" d="M 0 0 L 25 0 L 37 3 L 48 9 L 56 17 L 61 29 L 62 33 L 62 54 L 59 55 L 51 38 L 40 26 L 26 18 L 9 13 L -5 12 L -31 13 L -57 18 L -65 19 L -64 17 L -49 11 L -14 2 z" stroke-linecap="round" />
</g>
		<g transform="matrix(0.63 0 0 0.63 181.56 -2.5)"  >
<path style="stroke: none; stroke-width: 1; stroke-dasharray: none; stroke-linecap: butt; stroke-dashoffset: 0; stroke-linejoin: miter; stroke-miterlimit: 4; fill: rgb(193,136,67); fill-rule: nonzero; opacity: 1;" vector-effect="non-scaling-stroke"  transform=" translate(-35.5, -43.5)" d="M 0 0 L 8 0 L 26 7 L 40 16 L 49 24 L 60 39 L 68 55 L 71 65 L 71 76 L 66 87 L 62 86 L 57 69 L 46 48 L 35 34 L 28 26 L 20 19 L 10 10 L 0 2 z" stroke-linecap="round" />
</g>
		<g transform="matrix(0.63 0 0 0.63 100.63 -42.81)"  >
<path style="stroke: none; stroke-width: 1; stroke-dasharray: none; stroke-linecap: butt; stroke-dashoffset: 0; stroke-linejoin: miter; stroke-miterlimit: 4; fill: rgb(193,136,67); fill-rule: nonzero; opacity: 1;" vector-effect="non-scaling-stroke"  transform=" translate(-30, -44)" d="M 0 0 L 3 0 L 10 22 L 18 36 L 28 50 L 41 64 L 49 71 L 61 81 L 66 85 L 65 88 L 51 85 L 34 77 L 20 66 L 15 61 L 6 49 L -2 33 L -6 16 L -1 1 z" stroke-linecap="round" />
</g>
		<g transform="matrix(0.63 0 0 0.63 -3.13 114.06)"  >
<path style="stroke: none; stroke-width: 1; stroke-dasharray: none; stroke-linecap: butt; stroke-dashoffset: 0; stroke-linejoin: miter; stroke-miterlimit: 4; fill: rgb(193,136,67); fill-rule: nonzero; opacity: 1;" vector-effect="non-scaling-stroke"  transform=" translate(15, -32)" d="M 0 0 L 3 1 L 6 11 L 6 30 L 2 44 L -4 54 L -11 60 L -17 63 L -24 64 L -31 61 L -36 55 L -36 48 L -32 42 L -27 37 L -17 28 L -8 16 z" stroke-linecap="round" />
</g>
		<g transform="matrix(0.63 0 0 0.63 51.25 119.38)"  >
<path style="stroke: none; stroke-width: 1; stroke-dasharray: none; stroke-linecap: butt; stroke-dashoffset: 0; stroke-linejoin: miter; stroke-miterlimit: 4; fill: rgb(193,136,67); fill-rule: nonzero; opacity: 1;" vector-effect="non-scaling-stroke"  transform=" translate(18, -29.5)" d="M 0 0 L 4 1 L 5 5 L 5 15 L 2 31 L -6 47 L -10 52 L -17 57 L -24 59 L -32 59 L -38 55 L -41 50 L -41 43 L -38 37 L -32 32 L -23 27 L -12 18 L -2 3 z" stroke-linecap="round" />
</g>
		<g transform="matrix(0.63 0 0 0.63 -116.88 135)"  >
<path style="stroke: none; stroke-width: 1; stroke-dasharray: none; stroke-linecap: butt; stroke-dashoffset: 0; stroke-linejoin: miter; stroke-miterlimit: 4; fill: rgb(193,136,67); fill-rule: nonzero; opacity: 1;" vector-effect="non-scaling-stroke"  transform=" translate(-15, -28.5)" d="M 0 0 L 7 0 L 19 6 L 28 13 L 36 23 L 39 31 L 39 42 L 33 52 L 27 56 L 24 57 L 11 57 L 3 54 L -2 49 L -9 41 L -6 40 L 1 41 L 11 37 L 16 30 L 17 27 L 17 20 L 12 11 L 5 4 z" stroke-linecap="round" />
</g>
		<g transform="matrix(0.63 0 0 0.63 61.25 76.88)"  >
<path style="stroke: none; stroke-width: 1; stroke-dasharray: none; stroke-linecap: butt; stroke-dashoffset: 0; stroke-linejoin: miter; stroke-miterlimit: 4; fill: rgb(193,136,67); fill-rule: nonzero; opacity: 1;" vector-effect="non-scaling-stroke"  transform=" translate(-7, -32.5)" d="M 0 0 L 4 1 L 13 12 L 20 26 L 23 38 L 22 47 L 18 57 L 13 62 L 9 65 L 0 65 L -6 61 L -9 55 L -9 45 L -1 29 L 0 25 z" stroke-linecap="round" />
</g>
		<g transform="matrix(0.63 0 0 0.63 39.06 85)"  >
<path style="stroke: none; stroke-width: 1; stroke-dasharray: none; stroke-linecap: butt; stroke-dashoffset: 0; stroke-linejoin: miter; stroke-miterlimit: 4; fill: rgb(193,136,67); fill-rule: nonzero; opacity: 1;" vector-effect="non-scaling-stroke"  transform=" translate(-1.5, -33.5)" d="M 0 0 L 4 2 L 10 12 L 15 24 L 17 33 L 17 47 L 13 57 L 8 63 L 0 67 L -9 64 L -13 59 L -14 55 L -14 48 L -9 38 L -5 32 L -2 24 L -1 17 L -1 1 z" stroke-linecap="round" />
</g>
		<g transform="matrix(0.63 0 0 0.63 18.44 73.75)"  >
<path style="stroke: none; stroke-width: 1; stroke-dasharray: none; stroke-linecap: butt; stroke-dashoffset: 0; stroke-linejoin: miter; stroke-miterlimit: 4; fill: rgb(193,136,67); fill-rule: nonzero; opacity: 1;" vector-effect="non-scaling-stroke"  transform=" translate(-5.5, -36.5)" d="M 0 0 L 2 1 L 5 8 L 11 15 L 19 32 L 21 40 L 21 54 L 18 62 L 13 69 L 8 72 L 3 73 L -4 71 L -8 66 L -10 61 L -9 54 L -5 47 L 1 38 L 3 31 L 3 20 L -1 16 L -1 1 z" stroke-linecap="round" />
</g>
		<g transform="matrix(0.63 0 0 0.63 -105.63 246.56)"  >
<path style="stroke: none; stroke-width: 1; stroke-dasharray: none; stroke-linecap: butt; stroke-dashoffset: 0; stroke-linejoin: miter; stroke-miterlimit: 4; fill: rgb(193,136,67); fill-rule: nonzero; opacity: 1;" vector-effect="non-scaling-stroke"  transform=" translate(-48, -29)" d="M 0 0 L 18 0 L 28 4 L 42 13 L 58 21 L 74 26 L 84 28 L 106 30 L 109 33 L 104 38 L 93 45 L 83 50 L 72 53 L 61 54 L 64 52 L 87 42 L 92 39 L 93 36 L 91 35 L 72 33 L 57 28 L 43 20 L 35 16 L 32 15 L 23 15 L 18 18 L 15 22 L 14 31 L 17 38 L 21 43 L 30 49 L 42 53 L 50 55 L 49 57 L 33 58 L 19 55 L 9 51 L -2 43 L -9 35 L -12 30 L -13 26 L -13 16 L -9 7 L -2 1 z M 2 2 L -5 6 L -8 9 L -11 17 L -11 25 L -7 34 L 1 43 L 12 50 L 24 54 L 33 54 L 29 51 L 20 45 L 14 38 L 12 33 L 12 24 L 16 17 L 16 15 L 21 13 L 33 12 L 28 7 L 24 4 L 17 2 z" stroke-linecap="round" />
</g>
		<g transform="matrix(0.63 0 0 0.63 -179.69 210)"  >
<path style="stroke: none; stroke-width: 1; stroke-dasharray: none; stroke-linecap: butt; stroke-dashoffset: 0; stroke-linejoin: miter; stroke-miterlimit: 4; fill: rgb(193,136,67); fill-rule: nonzero; opacity: 1;" vector-effect="non-scaling-stroke"  transform=" translate(-4.5, -34.5)" d="M 0 0 L 8 0 L 18 5 L 24 12 L 28 21 L 28 37 L 26 35 L 23 27 L 21 23 L 17 21 L 12 19 L 2 19 L -6 24 L -10 34 L -10 44 L -8 52 L -3 62 L 1 68 L -1 69 L -8 61 L -13 54 L -18 40 L -19 34 L -19 21 L -15 10 L -11 5 L -4 1 z" stroke-linecap="round" />
</g>
		<g transform="matrix(0.63 0 0 0.63 16.25 178.13)"  >
<path style="stroke: none; stroke-width: 1; stroke-dasharray: none; stroke-linecap: butt; stroke-dashoffset: 0; stroke-linejoin: miter; stroke-miterlimit: 4; fill: rgb(193,136,67); fill-rule: nonzero; opacity: 1;" vector-effect="non-scaling-stroke"  transform=" translate(63, -65.5)" d="M 0 0 L 3 1 L 3 8 L -2 22 L -11 37 L -22 49 L -29 55 L -37 60 L -38 63 L -39 73 L -46 89 L -55 103 L -66 115 L -73 121 L -83 127 L -94 131 L -110 131 L -118 128 L -125 122 L -128 116 L -129 108 L -127 100 L -120 93 L -111 89 L -100 87 L -84 85 L -69 80 L -55 73 L -44 66 L -42 62 L -58 62 L -66 58 L -71 52 L -73 48 L -73 37 L -66 29 L -59 25 L -35 20 L -23 15 L -9 7 z M -3 5 L -14 13 L -30 21 L -47 25 L -61 28 L -69 35 L -71 39 L -71 47 L -68 53 L -60 59 L -47 60 L -38 58 L -28 51 L -18 42 L -9 30 L 0 11 L 0 5 z M -45 69 L -59 78 L -72 84 L -86 88 L -111 91 L -120 96 L -125 102 L -126 104 L -126 115 L -121 123 L -115 127 L -109 129 L -95 129 L -82 124 L -69 115 L -59 105 L -49 90 L -43 78 L -42 69 z" stroke-linecap="round" />
</g>
		<g transform="matrix(0.63 0 0 0.63 -76.88 196.25)"  >
<path style="stroke: none; stroke-width: 1; stroke-dasharray: none; stroke-linecap: butt; stroke-dashoffset: 0; stroke-linejoin: miter; stroke-miterlimit: 4; fill: rgb(193,136,67); fill-rule: nonzero; opacity: 1;" vector-effect="non-scaling-stroke"  transform=" translate(-19, -19.5)" d="M 0 0 L 10 0 L 16 4 L 19 8 L 23 18 L 29 26 L 37 33 L 43 37 L 44 39 L 29 39 L 15 36 L 7 33 L 1 29 L -5 20 L -6 17 L -6 5 z" stroke-linecap="round" />
</g>
		<g transform="matrix(0.63 0 0 0.63 -129.06 188.13)"  >
<path style="stroke: none; stroke-width: 1; stroke-dasharray: none; stroke-linecap: butt; stroke-dashoffset: 0; stroke-linejoin: miter; stroke-miterlimit: 4; fill: rgb(193,136,67); fill-rule: nonzero; opacity: 1;" vector-effect="non-scaling-stroke"  transform=" translate(-35.5, -69.5)" d="M 0 0 L 11 0 L 21 4 L 30 10 L 39 20 L 43 29 L 45 40 L 46 55 L 50 73 L 56 87 L 63 98 L 72 109 L 85 122 L 101 136 L 101 139 L 90 139 L 63 136 L 48 132 L 29 125 L 14 116 L 3 108 L -9 96 L -18 84 L -24 71 L -28 58 L -30 46 L -30 35 L -26 20 L -20 11 L -13 5 L -8 2 z M 1 2 L -8 5 L -17 11 L -23 19 L -26 27 L -28 36 L -28 46 L -24 65 L -17 81 L -7 95 L 6 108 L 26 121 L 43 128 L 52 131 L 64 134 L 96 137 L 94 133 L 80 120 L 67 107 L 59 97 L 49 77 L 45 63 L 44 58 L 42 35 L 40 27 L 34 17 L 24 8 L 17 4 L 9 2 z" stroke-linecap="round" />
</g>
		<g transform="matrix(0.63 0 0 0.63 138.13 -114.38)"  >
<path style="stroke: none; stroke-width: 1; stroke-dasharray: none; stroke-linecap: butt; stroke-dashoffset: 0; stroke-linejoin: miter; stroke-miterlimit: 4; fill: rgb(193,136,67); fill-rule: nonzero; opacity: 1;" vector-effect="non-scaling-stroke"  transform=" translate(-39, -30.5)" d="M 0 0 L 23 0 L 38 4 L 54 11 L 68 20 L 85 32 L 100 46 L 108 53 L 113 59 L 113 61 L 108 59 L 93 47 L 78 37 L 64 29 L 43 21 L 28 17 L 16 15 L 3 15 L -9 17 L -22 21 L -34 26 L -35 23 L -29 15 L -16 6 L -8 2 z M 8 2 L -3 3 L -15 8 L -25 15 L -25 17 L -27 17 L -27 19 L -15 16 L -2 13 L 18 13 L 35 16 L 53 22 L 67 28 L 83 36 L 83 34 L 81 34 L 81 32 L 62 19 L 49 11 L 33 5 L 26 3 L 18 2 z" stroke-linecap="round" />
</g>
		<g transform="matrix(0.63 0 0 0.63 144.38 69.38)"  >
<path style="stroke: none; stroke-width: 1; stroke-dasharray: none; stroke-linecap: butt; stroke-dashoffset: 0; stroke-linejoin: miter; stroke-miterlimit: 4; fill: rgb(193,136,67); fill-rule: nonzero; opacity: 1;" vector-effect="non-scaling-stroke"  transform=" translate(-74, -30.5)" d="M 0 0 L 4 1 L 14 9 L 38 25 L 57 35 L 81 43 L 94 45 L 114 45 L 129 42 L 143 36 L 148 36 L 144 43 L 133 52 L 120 58 L 106 61 L 97 61 L 80 58 L 61 50 L 45 41 L 34 32 L 25 25 L 15 16 L 2 4 z M 31 25 L 37 32 L 51 42 L 76 54 L 92 58 L 111 58 L 124 54 L 136 47 L 140 42 L 133 43 L 118 47 L 90 47 L 78 45 L 58 38 L 42 30 L 33 25 z" stroke-linecap="round" />
</g>
		<g transform="matrix(0.63 0 0 0.63 -35.31 26.25)"  >
<path style="stroke: none; stroke-width: 1; stroke-dasharray: none; stroke-linecap: butt; stroke-dashoffset: 0; stroke-linejoin: miter; stroke-miterlimit: 4; fill: rgb(193,136,67); fill-rule: nonzero; opacity: 1;" vector-effect="non-scaling-stroke"  transform=" translate(-2.5, -74.5)" d="M 0 0 L 6 1 L 12 6 L 17 16 L 21 33 L 22 41 L 22 69 L 19 92 L 13 115 L 8 127 L -1 141 L -5 146 L -11 149 L -12 148 L -12 110 L -16 68 L -17 59 L -17 23 L -14 11 L -10 5 L -4 1 z M -2 3 L -9 7 L -14 19 L -15 24 L -15 51 L -13 74 L -12 79 L -9 114 L -9 144 L -5 142 L 3 131 L 11 114 L 17 91 L 20 63 L 20 46 L 17 25 L 14 16 L 10 7 L 7 6 L 7 4 z" stroke-linecap="round" />
</g>
		<g transform="matrix(0.63 0 0 0.63 -60.63 233.75)"  >
<path style="stroke: none; stroke-width: 1; stroke-dasharray: none; stroke-linecap: butt; stroke-dashoffset: 0; stroke-linejoin: miter; stroke-miterlimit: 4; fill: rgb(193,136,67); fill-rule: nonzero; opacity: 1;" vector-effect="non-scaling-stroke"  transform=" translate(-7, -21.5)" d="M 0 0 L 12 0 L 19 3 L 17 6 L 9 10 L 6 16 L 6 24 L 10 32 L 17 37 L 27 41 L 23 43 L 16 43 L 4 39 L -6 33 L -12 25 L -13 21 L -13 13 L -9 5 L -3 1 z" stroke-linecap="round" />
</g>
		<g transform="matrix(0.63 0 0 0.63 -101.25 251.88)"  >
<path style="stroke: none; stroke-width: 1; stroke-dasharray: none; stroke-linecap: butt; stroke-dashoffset: 0; stroke-linejoin: miter; stroke-miterlimit: 4; fill: rgb(193,136,67); fill-rule: nonzero; opacity: 1;" vector-effect="non-scaling-stroke"  transform=" translate(-21, -12.5)" d="M 0 0 L 8 0 L 24 8 L 34 11 L 45 13 L 46 16 L 41 21 L 32 24 L 19 25 L 8 22 L 0 17 L -4 10 L -3 3 z" stroke-linecap="round" />
</g>
		<g transform="matrix(0.63 0 0 0.63 -47.19 -61.25)"  >
<path style="stroke: none; stroke-width: 1; stroke-dasharray: none; stroke-linecap: butt; stroke-dashoffset: 0; stroke-linejoin: miter; stroke-miterlimit: 4; fill: rgb(193,136,67); fill-rule: nonzero; opacity: 1;" vector-effect="non-scaling-stroke"  transform=" translate(1.5, -27.5)" d="M 0 0 L 25 0 L 37 3 L 48 9 L 56 17 L 61 29 L 62 33 L 62 54 L 59 55 L 51 38 L 40 26 L 26 18 L 9 13 L -5 12 L -31 13 L -57 18 L -65 19 L -64 17 L -49 11 L -14 2 z M 7 2 L -17 5 L -26 8 L -26 9 L 4 10 L 16 12 L 30 17 L 41 24 L 49 31 L 58 45 L 60 45 L 60 34 L 56 22 L 47 11 L 38 6 L 34 4 L 20 2 z" stroke-linecap="round" />
</g>
		<g transform="matrix(0.63 0 0 0.63 -35.63 234.69)"  >
<path style="stroke: none; stroke-width: 1; stroke-dasharray: none; stroke-linecap: butt; stroke-dashoffset: 0; stroke-linejoin: miter; stroke-miterlimit: 4; fill: rgb(193,136,67); fill-rule: nonzero; opacity: 1;" vector-effect="non-scaling-stroke"  transform=" translate(-13, -14)" d="M 0 0 L 7 0 L 12 7 L 16 9 L 34 10 L 35 13 L 31 19 L 33 20 L 26 22 L 24 25 L 17 26 L 14 25 L 14 28 L 12 28 L 12 25 L 3 25 L -7 20 L -9 17 L -9 9 L -6 6 L 0 4 z" stroke-linecap="round" />
</g>
		<g transform="matrix(0.63 0 0 0.63 -130.31 195.94)"  >
<path style="stroke: none; stroke-width: 1; stroke-dasharray: none; stroke-linecap: butt; stroke-dashoffset: 0; stroke-linejoin: miter; stroke-miterlimit: 4; fill: rgb(193,136,67); fill-rule: nonzero; opacity: 1;" vector-effect="non-scaling-stroke"  transform=" translate(-25.5, -45)" d="M 0 0 L 14 0 L 20 3 L 26 8 L 31 15 L 33 21 L 35 40 L 40 53 L 49 66 L 60 77 L 68 83 L 67 89 L 65 90 L 47 89 L 32 85 L 21 81 L 13 77 L 4 70 L -3 64 L -3 62 L -5 62 L -13 49 L -17 36 L -17 18 L -12 8 L -5 2 z M 0 2 L -10 9 L -14 17 L -15 20 L -15 34 L -10 50 L -3 61 L 8 71 L 22 79 L 39 85 L 58 88 L 64 88 L 65 84 L 53 73 L 46 66 L 39 56 L 34 45 L 32 35 L 30 19 L 26 12 L 22 7 L 13 2 z" stroke-linecap="round" />
</g>
		<g transform="matrix(0.63 0 0 0.63 165.94 -116.88)"  >
<path style="stroke: none; stroke-width: 1; stroke-dasharray: none; stroke-linecap: butt; stroke-dashoffset: 0; stroke-linejoin: miter; stroke-miterlimit: 4; fill: rgb(193,136,67); fill-rule: nonzero; opacity: 1;" vector-effect="non-scaling-stroke"  transform=" translate(-31.5, -26.5)" d="M 0 0 L 7 0 L 17 3 L 27 9 L 41 21 L 50 32 L 59 44 L 63 51 L 63 53 L 59 51 L 51 44 L 45 37 L 34 28 L 22 18 L 0 3 z" stroke-linecap="round" />
</g>
		<g transform="matrix(0.63 0 0 0.63 -59.06 -80)"  >
<path style="stroke: none; stroke-width: 1; stroke-dasharray: none; stroke-linecap: butt; stroke-dashoffset: 0; stroke-linejoin: miter; stroke-miterlimit: 4; fill: rgb(193,136,67); fill-rule: nonzero; opacity: 1;" vector-effect="non-scaling-stroke"  transform=" translate(12.5, -12.5)" d="M 0 0 L 21 0 L 26 3 L 27 6 L 21 8 L 2 11 L -16 15 L -32 20 L -46 25 L -52 25 L -47 20 L -26 9 L -4 1 z" stroke-linecap="round" />
</g>
		<g transform="matrix(0.63 0 0 0.63 116.25 70.94)"  >
<path style="stroke: none; stroke-width: 1; stroke-dasharray: none; stroke-linecap: butt; stroke-dashoffset: 0; stroke-linejoin: miter; stroke-miterlimit: 4; fill: rgb(193,136,67); fill-rule: nonzero; opacity: 1;" vector-effect="non-scaling-stroke"  transform=" translate(-32, -27)" d="M 0 0 L 2 0 L 2 2 L 6 4 L 21 19 L 29 26 L 44 38 L 61 49 L 64 51 L 63 54 L 55 54 L 43 49 L 29 39 L 24 34 L 13 22 L 1 4 z" stroke-linecap="round" />
</g>
		<g transform="matrix(0.63 0 0 0.63 100.63 -42.81)"  >
<path style="stroke: none; stroke-width: 1; stroke-dasharray: none; stroke-linecap: butt; stroke-dashoffset: 0; stroke-linejoin: miter; stroke-miterlimit: 4; fill: rgb(193,136,67); fill-rule: nonzero; opacity: 1;" vector-effect="non-scaling-stroke"  transform=" translate(-30, -44)" d="M 0 0 L 3 0 L 10 22 L 18 36 L 28 50 L 41 64 L 49 71 L 61 81 L 66 85 L 65 88 L 51 85 L 34 77 L 20 66 L 15 61 L 6 49 L -2 33 L -6 16 L -1 1 z M 0 6 L -3 13 L -3 20 L 1 34 L 7 46 L 15 57 L 22 65 L 31 72 L 39 77 L 47 81 L 55 84 L 59 84 L 59 82 L 54 80 L 54 78 L 44 70 L 36 63 L 29 55 L 19 42 L 11 29 L 7 21 L 2 6 z" stroke-linecap="round" />
</g>
		<g transform="matrix(0.63 0 0 0.63 -48.44 153.13)"  >
<path style="stroke: none; stroke-width: 1; stroke-dasharray: none; stroke-linecap: butt; stroke-dashoffset: 0; stroke-linejoin: miter; stroke-miterlimit: 4; fill: rgb(193,136,67); fill-rule: nonzero; opacity: 1;" vector-effect="non-scaling-stroke"  transform=" translate(43.5, -33.5)" d="M 0 0 L 4 1 L 1 13 L -9 32 L -17 43 L -27 53 L -41 62 L -50 66 L -55 67 L -70 67 L -80 64 L -87 58 L -90 52 L -91 45 L -88 37 L -83 31 L -73 26 L -58 24 L -41 21 L -24 15 L -13 9 z M -3 5 L -18 15 L -33 21 L -47 25 L -68 27 L -79 31 L -85 36 L -88 43 L -88 50 L -84 58 L -79 62 L -67 65 L -57 65 L -46 62 L -34 55 L -25 48 L -15 37 L -7 24 L 0 9 L 0 5 z" stroke-linecap="round" />
</g>
		<g transform="matrix(0.63 0 0 0.63 181.56 -2.5)"  >
<path style="stroke: none; stroke-width: 1; stroke-dasharray: none; stroke-linecap: butt; stroke-dashoffset: 0; stroke-linejoin: miter; stroke-miterlimit: 4; fill: rgb(193,136,67); fill-rule: nonzero; opacity: 1;" vector-effect="non-scaling-stroke"  transform=" translate(-35.5, -43.5)" d="M 0 0 L 8 0 L 26 7 L 40 16 L 49 24 L 60 39 L 68 55 L 71 65 L 71 76 L 66 87 L 62 86 L 57 69 L 46 48 L 35 34 L 28 26 L 20 19 L 10 10 L 0 2 z M 9 4 L 11 8 L 31 26 L 38 34 L 47 45 L 54 57 L 61 73 L 64 81 L 67 80 L 69 75 L 69 67 L 65 54 L 56 37 L 50 29 L 48 29 L 46 24 L 35 15 L 25 9 L 13 4 z" stroke-linecap="round" />
</g>
		<g transform="matrix(0.63 0 0 0.63 -196.25 165.63)"  >
<path style="stroke: none; stroke-width: 1; stroke-dasharray: none; stroke-linecap: butt; stroke-dashoffset: 0; stroke-linejoin: miter; stroke-miterlimit: 4; fill: rgb(193,136,67); fill-rule: nonzero; opacity: 1;" vector-effect="non-scaling-stroke"  transform=" translate(2, -20.5)" d="M 0 0 L 6 1 L 10 5 L 10 13 L 7 18 L -1 25 L -7 33 L -10 40 L -12 41 L -14 34 L -14 16 L -9 6 L -4 2 z" stroke-linecap="round" />
</g>
		<g transform="matrix(0.63 0 0 0.63 -24.38 178.44)"  >
<path style="stroke: none; stroke-width: 1; stroke-dasharray: none; stroke-linecap: butt; stroke-dashoffset: 0; stroke-linejoin: miter; stroke-miterlimit: 4; fill: rgb(193,136,67); fill-rule: nonzero; opacity: 1;" vector-effect="non-scaling-stroke"  transform=" translate(42, -31)" d="M 0 0 L 3 0 L 2 9 L -6 24 L -16 38 L -25 47 L -38 56 L -49 61 L -54 62 L -67 62 L -77 59 L -84 53 L -87 46 L -87 35 L -83 28 L -78 24 L -72 21 L -67 20 L -41 18 L -24 13 L -8 5 z M -2 4 L -16 12 L -28 17 L -38 20 L -45 21 L -67 22 L -77 26 L -82 31 L -85 35 L -85 44 L -82 52 L -73 58 L -66 60 L -56 60 L -45 57 L -36 52 L -25 44 L -16 34 L -7 21 L 0 8 L 0 4 z" stroke-linecap="round" />
</g>
		<g transform="matrix(0.63 0 0 0.63 -173.13 223.13)"  >
<path style="stroke: none; stroke-width: 1; stroke-dasharray: none; stroke-linecap: butt; stroke-dashoffset: 0; stroke-linejoin: miter; stroke-miterlimit: 4; fill: rgb(193,136,67); fill-rule: nonzero; opacity: 1;" vector-effect="non-scaling-stroke"  transform=" translate(-9, -18.5)" d="M 0 0 L 8 0 L 13 5 L 14 14 L 16 24 L 19 31 L 21 36 L 18 37 L 9 31 L 2 26 L -3 17 L -3 4 z" stroke-linecap="round" />
</g>
		<g transform="matrix(0.63 0 0 0.63 12.81 127.19)"  >
<path style="stroke: none; stroke-width: 1; stroke-dasharray: none; stroke-linecap: butt; stroke-dashoffset: 0; stroke-linejoin: miter; stroke-miterlimit: 4; fill: rgb(193,136,67); fill-rule: nonzero; opacity: 1;" vector-effect="non-scaling-stroke"  transform=" translate(16.5, -41)" d="M 0 0 L 3 2 L 6 12 L 7 20 L 7 36 L 4 50 L -1 62 L -5 68 L -13 77 L -22 82 L -32 82 L -38 78 L -40 74 L -40 65 L -36 57 L -25 45 L -18 36 L -12 27 L -4 6 L -2 1 z M 0 5 L -2 7 L -7 21 L -13 33 L -20 43 L -31 54 L -36 61 L -38 66 L -38 74 L -33 79 L -24 80 L -16 76 L -5 65 L 0 56 L 4 40 L 5 24 L 3 10 L 1 5 z" stroke-linecap="round" />
</g>
		<g transform="matrix(0.63 0 0 0.63 -136.56 126.88)"  >
<path style="stroke: none; stroke-width: 1; stroke-dasharray: none; stroke-linecap: butt; stroke-dashoffset: 0; stroke-linejoin: miter; stroke-miterlimit: 4; fill: rgb(193,136,67); fill-rule: nonzero; opacity: 1;" vector-effect="non-scaling-stroke"  transform=" translate(-15.5, -11.5)" d="M 0 0 L 16 0 L 28 5 L 33 13 L 33 19 L 29 23 L 21 23 L 16 19 L 10 11 L 5 7 L -2 3 L -2 1 z" stroke-linecap="round" />
</g>
		<g transform="matrix(0.63 0 0 0.63 18.44 73.75)"  >
<path style="stroke: none; stroke-width: 1; stroke-dasharray: none; stroke-linecap: butt; stroke-dashoffset: 0; stroke-linejoin: miter; stroke-miterlimit: 4; fill: rgb(193,136,67); fill-rule: nonzero; opacity: 1;" vector-effect="non-scaling-stroke"  transform=" translate(-5.5, -36.5)" d="M 0 0 L 2 1 L 5 8 L 11 15 L 19 32 L 21 40 L 21 54 L 18 62 L 13 69 L 8 72 L 3 73 L -4 71 L -8 66 L -10 61 L -9 54 L -5 47 L 1 38 L 3 31 L 3 20 L -1 16 L -1 1 z M 7 18 L 5 33 L 0 45 L -5 51 L -7 56 L -6 65 L -1 70 L 7 70 L 15 63 L 18 56 L 19 51 L 18 37 L 12 22 L 9 18 z" stroke-linecap="round" />
</g>
		<g transform="matrix(0.63 0 0 0.63 -3.13 114.06)"  >
<path style="stroke: none; stroke-width: 1; stroke-dasharray: none; stroke-linecap: butt; stroke-dashoffset: 0; stroke-linejoin: miter; stroke-miterlimit: 4; fill: rgb(193,136,67); fill-rule: nonzero; opacity: 1;" vector-effect="non-scaling-stroke"  transform=" translate(15, -32)" d="M 0 0 L 3 1 L 6 11 L 6 30 L 2 44 L -4 54 L -11 60 L -17 63 L -24 64 L -31 61 L -36 55 L -36 48 L -32 42 L -27 37 L -17 28 L -8 16 z M 0 6 L -7 19 L -13 27 L -22 36 L -30 43 L -33 47 L -33 55 L -28 60 L -26 61 L -19 61 L -11 57 L -3 49 L 1 41 L 3 34 L 3 9 z" stroke-linecap="round" />
</g>
		<g transform="matrix(0.63 0 0 0.63 -131.88 199.69)"  >
<path style="stroke: none; stroke-width: 1; stroke-dasharray: none; stroke-linecap: butt; stroke-dashoffset: 0; stroke-linejoin: miter; stroke-miterlimit: 4; fill: rgb(193,136,67); fill-rule: nonzero; opacity: 1;" vector-effect="non-scaling-stroke"  transform=" translate(-16, -29)" d="M 0 0 L 9 0 L 17 5 L 21 11 L 23 27 L 28 39 L 35 48 L 42 54 L 42 58 L 31 58 L 20 55 L 8 49 L -2 40 L -8 29 L -10 22 L -10 11 L -6 4 z M 1 2 L -5 6 L -7 9 L -8 20 L -5 31 L 2 41 L 4 41 L 4 43 L 9 47 L 19 52 L 29 55 L 38 55 L 32 48 L 25 38 L 22 31 L 20 21 L 19 12 L 15 6 L 8 2 z" stroke-linecap="round" />
</g>
		<g transform="matrix(0.63 0 0 0.63 39.06 85)"  >
<path style="stroke: none; stroke-width: 1; stroke-dasharray: none; stroke-linecap: butt; stroke-dashoffset: 0; stroke-linejoin: miter; stroke-miterlimit: 4; fill: rgb(193,136,67); fill-rule: nonzero; opacity: 1;" vector-effect="non-scaling-stroke"  transform=" translate(-1.5, -33.5)" d="M 0 0 L 4 2 L 10 12 L 15 24 L 17 33 L 17 47 L 13 57 L 8 63 L 0 67 L -9 64 L -13 59 L -14 55 L -14 48 L -9 38 L -5 32 L -2 24 L -1 17 L -1 1 z M 3 8 L 0 26 L -11 48 L -11 57 L -7 62 L -2 64 L 3 63 L 9 58 L 14 49 L 14 29 L 10 19 L 5 9 z" stroke-linecap="round" />
</g>
		<g transform="matrix(0.63 0 0 0.63 51.25 119.38)"  >
<path style="stroke: none; stroke-width: 1; stroke-dasharray: none; stroke-linecap: butt; stroke-dashoffset: 0; stroke-linejoin: miter; stroke-miterlimit: 4; fill: rgb(193,136,67); fill-rule: nonzero; opacity: 1;" vector-effect="non-scaling-stroke"  transform=" translate(18, -29.5)" d="M 0 0 L 4 1 L 5 5 L 5 15 L 2 31 L -6 47 L -10 52 L -17 57 L -24 59 L -32 59 L -38 55 L -41 50 L -41 43 L -38 37 L -32 32 L -23 27 L -12 18 L -2 3 z M 0 5 L -7 15 L -14 23 L -28 33 L -34 37 L -38 42 L -39 49 L -36 54 L -31 57 L -22 56 L -14 52 L -7 44 L -1 32 L 2 19 L 2 6 z" stroke-linecap="round" />
</g>
		<g transform="matrix(0.63 0 0 0.63 61.25 76.88)"  >
<path style="stroke: none; stroke-width: 1; stroke-dasharray: none; stroke-linecap: butt; stroke-dashoffset: 0; stroke-linejoin: miter; stroke-miterlimit: 4; fill: rgb(193,136,67); fill-rule: nonzero; opacity: 1;" vector-effect="non-scaling-stroke"  transform=" translate(-7, -32.5)" d="M 0 0 L 4 1 L 13 12 L 20 26 L 23 38 L 22 47 L 18 57 L 13 62 L 9 65 L 0 65 L -6 61 L -9 55 L -9 45 L -1 29 L 0 25 z M 3 7 L 3 22 L 1 30 L -6 45 L -7 53 L -3 60 L 3 63 L 8 63 L 15 57 L 19 49 L 20 45 L 20 35 L 17 25 L 8 9 L 6 9 L 6 7 z" stroke-linecap="round" />
</g>
		<g transform="matrix(0.63 0 0 0.63 -124.06 249.38)"  >
<path style="stroke: none; stroke-width: 1; stroke-dasharray: none; stroke-linecap: butt; stroke-dashoffset: 0; stroke-linejoin: miter; stroke-miterlimit: 4; fill: rgb(193,136,67); fill-rule: nonzero; opacity: 1;" vector-effect="non-scaling-stroke"  transform=" translate(-27.5, -24.5)" d="M 0 0 L 1 3 L -1 8 L -1 16 L 3 25 L 10 33 L 21 40 L 33 44 L 40 44 L 30 38 L 22 29 L 20 24 L 20 15 L 25 6 L 29 5 L 27 9 L 24 13 L 23 22 L 26 29 L 30 34 L 39 40 L 51 44 L 59 46 L 58 48 L 42 49 L 28 46 L 18 42 L 7 34 L 0 26 L -3 21 L -4 17 L -4 7 L -1 1 z" stroke-linecap="round" />
</g>
		<g transform="matrix(0.63 0 0 0.63 -101.25 251.88)"  >
<path style="stroke: none; stroke-width: 1; stroke-dasharray: none; stroke-linecap: butt; stroke-dashoffset: 0; stroke-linejoin: miter; stroke-miterlimit: 4; fill: rgb(193,136,67); fill-rule: nonzero; opacity: 1;" vector-effect="non-scaling-stroke"  transform=" translate(-21, -12.5)" d="M 0 0 L 8 0 L 24 8 L 34 11 L 45 13 L 46 16 L 41 21 L 32 24 L 19 25 L 8 22 L 0 17 L -4 10 L -3 3 z M 2 2 L -1 4 L -1 11 L 5 18 L 11 21 L 17 22 L 26 22 L 35 20 L 41 17 L 42 15 L 23 10 L 7 2 z" stroke-linecap="round" />
</g>
		<g transform="matrix(0.63 0 0 0.63 -164.69 241.25)"  >
<path style="stroke: none; stroke-width: 1; stroke-dasharray: none; stroke-linecap: butt; stroke-dashoffset: 0; stroke-linejoin: miter; stroke-miterlimit: 4; fill: rgb(193,136,67); fill-rule: nonzero; opacity: 1;" vector-effect="non-scaling-stroke"  transform=" translate(-26.5, -14.5)" d="M 0 0 L 4 1 L 19 11 L 34 17 L 43 18 L 47 20 L 53 27 L 53 29 L 42 26 L 30 21 L 20 16 L 6 7 z" stroke-linecap="round" />
</g>
		<g transform="matrix(0.63 0 0 0.63 -54.06 -82.5)"  >
<path style="stroke: none; stroke-width: 1; stroke-dasharray: none; stroke-linecap: butt; stroke-dashoffset: 0; stroke-linejoin: miter; stroke-miterlimit: 4; fill: rgb(193,136,67); fill-rule: nonzero; opacity: 1;" vector-effect="non-scaling-stroke"  transform=" translate(7.5, -6.5)" d="M 0 0 L 13 0 L 17 2 L 8 5 L -13 9 L -28 13 L -32 12 L -18 5 z" stroke-linecap="round" />
</g>
		<g transform="matrix(0.63 0 0 0.63 118.44 75.63)"  >
<path style="stroke: none; stroke-width: 1; stroke-dasharray: none; stroke-linecap: butt; stroke-dashoffset: 0; stroke-linejoin: miter; stroke-miterlimit: 4; fill: rgb(193,136,67); fill-rule: nonzero; opacity: 1;" vector-effect="non-scaling-stroke"  transform=" translate(-20.5, -15.5)" d="M 0 0 L 5 2 L 10 7 L 20 15 L 41 30 L 41 31 L 35 31 L 19 21 L 9 12 L 0 1 z" stroke-linecap="round" />
</g>
		<g transform="matrix(0.63 0 0 0.63 163.44 -121.88)"  >
<path style="stroke: none; stroke-width: 1; stroke-dasharray: none; stroke-linecap: butt; stroke-dashoffset: 0; stroke-linejoin: miter; stroke-miterlimit: 4; fill: rgb(193,136,67); fill-rule: nonzero; opacity: 1;" vector-effect="non-scaling-stroke"  transform=" translate(-18.5, -14.5)" d="M 0 0 L 6 1 L 14 5 L 25 14 L 32 21 L 37 27 L 37 29 L 32 27 L 22 18 L 7 7 L 0 2 z" stroke-linecap="round" />
</g>
		<g transform="matrix(0.63 0 0 0.63 -63.75 195)"  >
<path style="stroke: none; stroke-width: 1; stroke-dasharray: none; stroke-linecap: butt; stroke-dashoffset: 0; stroke-linejoin: miter; stroke-miterlimit: 4; fill: rgb(193,136,67); fill-rule: nonzero; opacity: 1;" vector-effect="non-scaling-stroke"  transform=" translate(-17, -17.5)" d="M 0 0 L 5 5 L 11 13 L 19 21 L 19 23 L 23 25 L 31 31 L 34 33 L 34 35 L 30 34 L 19 27 L 11 20 L 1 6 z" stroke-linecap="round" />
</g>
		<g transform="matrix(0.63 0 0 0.63 -202.5 193.13)"  >
<path style="stroke: none; stroke-width: 1; stroke-dasharray: none; stroke-linecap: butt; stroke-dashoffset: 0; stroke-linejoin: miter; stroke-miterlimit: 4; fill: rgb(193,136,67); fill-rule: nonzero; opacity: 1;" vector-effect="non-scaling-stroke"  transform=" translate(-6, -15.5)" d="M 0 0 L 2 4 L 6 13 L 12 15 L 11 25 L 9 31 L 6 27 L 0 7 z" stroke-linecap="round" />
</g>
		<g transform="matrix(0.63 0 0 0.63 -45.94 212.19)"  >
<path style="stroke: none; stroke-width: 1; stroke-dasharray: none; stroke-linecap: butt; stroke-dashoffset: 0; stroke-linejoin: miter; stroke-miterlimit: 4; fill: rgb(193,136,67); fill-rule: nonzero; opacity: 1;" vector-effect="non-scaling-stroke"  transform=" translate(-0.5, -4)" d="M 0 0 L 7 1 L 15 5 L 14 7 L 5 8 L -14 8 L -14 7 L -6 5 L -1 4 z" stroke-linecap="round" />
</g>
		<g transform="matrix(0.63 0 0 0.63 -50.63 -210.31)"  >
<path style="stroke: none; stroke-width: 1; stroke-dasharray: none; stroke-linecap: butt; stroke-dashoffset: 0; stroke-linejoin: miter; stroke-miterlimit: 4; fill: rgb(193,136,67); fill-rule: nonzero; opacity: 1;" vector-effect="non-scaling-stroke"  transform=" translate(-4, -6)" d="M 0 0 L 8 0 L 10 2 L 10 9 L 5 12 L -1 10 L -2 9 L -2 2 z M 2 2 L 0 4 L 1 8 L 6 9 L 8 7 L 7 3 z" stroke-linecap="round" />
</g>
		<g transform="matrix(0.63 0 0 0.63 -26.25 -229.06)"  >
<path style="stroke: none; stroke-width: 1; stroke-dasharray: none; stroke-linecap: butt; stroke-dashoffset: 0; stroke-linejoin: miter; stroke-miterlimit: 4; fill: rgb(193,136,67); fill-rule: nonzero; opacity: 1;" vector-effect="non-scaling-stroke"  transform=" translate(2, -6)" d="M 0 0 L 4 0 L 3 5 L -6 12 L -8 11 L -1 1 z" stroke-linecap="round" />
</g>
		<g transform="matrix(0.63 0 0 0.63 -12.19 228.44)"  >
<path style="stroke: none; stroke-width: 1; stroke-dasharray: none; stroke-linecap: butt; stroke-dashoffset: 0; stroke-linejoin: miter; stroke-miterlimit: 4; fill: rgb(193,136,67); fill-rule: nonzero; opacity: 1;" vector-effect="non-scaling-stroke"  transform=" translate(-1.5, -4)" d="M 0 0 L 6 0 L 4 4 L 0 8 L -3 8 L -3 2 z" stroke-linecap="round" />
</g>
		<g transform="matrix(0.63 0 0 0.63 -73.13 250.63)"  >
<path style="stroke: none; stroke-width: 1; stroke-dasharray: none; stroke-linecap: butt; stroke-dashoffset: 0; stroke-linejoin: miter; stroke-miterlimit: 4; fill: rgb(193,136,67); fill-rule: nonzero; opacity: 1;" vector-effect="non-scaling-stroke"  transform=" translate(-2, -3.5)" d="M 0 0 L 6 1 L 4 5 L 1 7 L -2 7 L -2 1 z" stroke-linecap="round" />
</g>
		<g transform="matrix(0.63 0 0 0.63 -164.69 121.56)"  >
<path style="stroke: none; stroke-width: 1; stroke-dasharray: none; stroke-linecap: butt; stroke-dashoffset: 0; stroke-linejoin: miter; stroke-miterlimit: 4; fill: rgb(193,136,67); fill-rule: nonzero; opacity: 1;" vector-effect="non-scaling-stroke"  transform=" translate(-0.5, -3)" d="M 0 0 L 4 0 L 6 5 L 3 6 L -5 3 L -2 1 z" stroke-linecap="round" />
</g>
		<g transform="matrix(0.63 0 0 0.63 185 -89.38)"  >
<path style="stroke: none; stroke-width: 1; stroke-dasharray: none; stroke-linecap: butt; stroke-dashoffset: 0; stroke-linejoin: miter; stroke-miterlimit: 4; fill: rgb(193,136,67); fill-rule: nonzero; opacity: 1;" vector-effect="non-scaling-stroke"  transform=" translate(-1, -0.5)" d="M 0 0 L 2 1 z" stroke-linecap="round" />
</g>
</g>
</g>
<g transform="matrix(NaN NaN NaN NaN 0 0)"  >
<g style=""   >
</g>
</g>
<g transform="matrix(NaN NaN NaN NaN 0 0)"  >
<g style=""   >
</g>
</g>
</svg>